<?xml version="1.0" standalone="no"?>
<!DOCTYPE svg PUBLIC "-//W3C//DTD SVG 20010904//EN"
 "http://www.w3.org/TR/2001/REC-SVG-20010904/DTD/svg10.dtd">
<svg version="1.0" xmlns="http://www.w3.org/2000/svg"
 width="260.000000pt" height="260.000000pt" viewBox="0 0 260.000000 260.000000"
 preserveAspectRatio="xMidYMid meet">
<metadata>
Created by potrace 1.14, written by Peter Selinger 2001-2017
</metadata>
<g transform="translate(0.000000,260.000000) scale(0.100000,-0.100000)"
fill="#000000" stroke="none">
<path d="M1055 2590 c-3 -5 -1 -11 5 -15 6 -4 8 -11 4 -16 -3 -6 -12 -3 -21 8
-13 17 -13 16 -4 -4 12 -24 0 -39 -24 -29 -7 2 -19 -2 -25 -10 -7 -8 -18 -14
-26 -14 -7 0 -16 -4 -19 -10 -4 -6 1 -7 11 -3 12 4 15 3 10 -5 -5 -8 -2 -10 8
-6 9 3 16 1 16 -5 0 -6 -6 -10 -12 -8 -7 1 -12 -5 -10 -13 2 -10 -5 -7 -22 9
-25 23 -25 23 -21 2 4 -22 -10 -29 -18 -8 -3 6 -6 8 -6 2 0 -5 4 -17 9 -25 9
-13 11 -13 19 0 6 8 14 11 18 6 4 -5 3 -11 -3 -13 -28 -10 -45 -31 -50 -60 -3
-17 0 -34 5 -37 6 -4 9 5 6 24 -2 17 1 28 6 25 5 -3 6 2 3 12 -5 16 -4 16 6
-1 10 -14 10 -20 0 -26 -9 -6 -9 -12 0 -29 8 -16 8 -26 1 -35 -7 -9 -6 -19 6
-36 9 -13 11 -20 5 -16 -6 3 -13 2 -17 -4 -3 -5 0 -10 7 -10 7 0 -2 -8 -19
-16 -18 -9 -30 -21 -26 -27 3 -6 1 -7 -6 -3 -8 6 -5 15 14 31 27 26 31 35 15
35 -5 0 -10 -7 -10 -16 0 -10 -6 -14 -15 -10 -8 3 -14 0 -12 -7 1 -7 -5 -11
-14 -9 -9 1 -19 -4 -23 -13 -6 -16 -36 -21 -36 -5 0 5 6 8 13 6 6 -1 9 -1 4 1
-4 3 -4 10 0 16 5 9 3 9 -8 1 -8 -6 -28 -11 -46 -9 -18 1 -30 -2 -27 -7 3 -5
14 -6 24 -3 10 3 20 0 23 -9 4 -11 0 -13 -16 -9 -12 3 -30 6 -39 6 -9 1 -15 4
-13 7 2 3 -5 12 -17 19 -11 7 -17 8 -14 2 5 -7 -4 -9 -26 -7 -25 3 -37 -1 -51
-17 -14 -19 -16 -19 -11 -3 5 14 3 17 -7 14 -8 -3 -13 -12 -11 -19 3 -11 1
-11 -9 -2 -10 10 -9 16 2 30 12 16 12 17 -1 7 -17 -13 -89 -12 -109 1 -9 5
-12 4 -8 -2 4 -6 -1 -17 -10 -24 -14 -12 -16 -12 -11 2 6 15 0 16 -56 10 -5
-1 -2 -9 5 -18 13 -17 13 -17 -7 0 -11 9 -27 17 -34 17 -9 0 -7 -5 6 -16 18
-15 18 -15 -2 -5 -15 7 -25 7 -34 -2 -10 -10 -10 -8 -1 10 6 12 16 24 23 26
10 4 10 6 1 6 -17 1 -54 -40 -46 -52 3 -6 1 -7 -6 -3 -9 6 -9 11 -1 21 8 9 5
12 -12 11 -13 -1 -28 2 -35 7 -9 6 -11 3 -8 -12 2 -11 1 -20 -3 -20 -35 5 -43
-15 -14 -38 15 -13 15 -13 -5 -3 -22 10 -27 21 -24 47 1 6 -4 15 -10 19 -8 5
-9 3 -4 -6 4 -7 2 -16 -6 -21 -10 -6 -11 -9 -1 -9 6 0 12 -4 12 -10 0 -5 -3
-9 -7 -9 -27 4 -33 -2 -22 -22 7 -13 7 -19 1 -15 -6 3 -14 1 -17 -5 -4 -5 -13
-8 -20 -5 -15 6 -50 -29 -41 -42 3 -5 -1 -9 -8 -9 -8 0 -12 7 -8 15 3 10 1 13
-6 8 -6 -3 -13 -2 -17 3 -3 6 4 8 16 6 17 -4 19 -2 9 10 -10 11 -10 15 -1 15
7 0 9 5 5 11 -5 8 -10 6 -16 -5 -5 -9 -13 -14 -18 -11 -4 3 -9 -377 -9 -844 0
-754 1 -850 15 -855 8 -3 12 -11 8 -17 -4 -8 -3 -9 5 -5 6 4 9 12 6 17 -9 14
5 11 22 -6 8 -8 19 -13 24 -10 5 4 9 0 9 -7 0 -10 2 -10 9 0 4 8 12 14 16 14
4 0 12 -6 16 -14 6 -9 9 -10 9 -1 0 7 7 10 15 7 15 -6 22 11 8 19 -5 2 -3 2 4
1 6 -2 14 2 17 9 4 7 4 1 2 -13 l-5 -25 20 24 c10 13 19 19 19 13 0 -6 9 -8
20 -5 11 3 20 1 20 -4 0 -6 -11 -9 -25 -8 -30 4 -30 2 -8 -16 11 -10 14 -10 9
-1 -4 6 -3 12 3 12 5 0 12 -4 16 -10 8 -13 35 -1 35 17 0 8 5 11 10 8 6 -4 7
-11 4 -17 -5 -7 -2 -8 5 -4 7 5 10 15 7 25 -5 12 -3 12 9 -3 8 -10 12 -23 9
-27 -3 -5 0 -9 6 -9 7 0 10 6 7 13 -3 8 3 14 14 14 11 1 17 -2 14 -6 -6 -10
47 -7 64 3 6 4 8 13 4 19 -5 9 -3 9 8 1 8 -6 24 -10 36 -8 12 2 25 -1 28 -6 4
-6 1 -9 -6 -8 -6 2 -14 -4 -16 -12 -4 -12 -3 -12 5 -2 13 19 16 19 37 2 11 -8
16 -10 13 -5 -3 6 0 16 8 23 14 13 19 5 15 -21 0 -4 4 -7 10 -7 6 0 9 6 6 13
-3 8 3 14 14 14 11 1 17 -2 14 -6 -6 -10 47 -7 64 3 6 4 8 13 4 19 -5 8 -2 8
9 0 8 -7 18 -10 22 -6 10 10 37 13 31 3 -7 -11 26 -29 43 -23 6 3 10 9 6 14
-3 5 -1 9 4 9 5 0 14 -10 20 -22 6 -13 11 -17 11 -10 1 6 10 12 22 12 11 0 18
4 15 9 -4 5 1 8 10 7 18 -3 35 -26 28 -38 -3 -4 -2 -13 2 -20 5 -8 10 -6 14 7
6 18 7 17 12 -3 4 -13 2 -20 -5 -19 -14 3 -16 -26 -2 -35 7 -5 6 -13 -2 -26
-6 -11 -8 -24 -3 -32 13 -21 2 -31 -28 -25 -16 3 -21 2 -12 -2 20 -10 20 -44
0 -61 -13 -11 -12 -11 7 -3 15 8 21 18 18 32 -3 12 -2 19 2 15 3 -3 12 -1 19
5 8 7 14 6 20 -2 4 -7 3 -9 -4 -5 -12 7 -25 -9 -29 -37 -2 -12 1 -16 9 -11 7
4 10 4 6 0 -4 -5 -3 -19 2 -32 5 -13 7 -24 5 -24 -3 0 -10 12 -15 26 -8 20
-13 24 -24 15 -7 -6 -17 -7 -21 -3 -5 4 -5 1 -1 -6 4 -7 11 -10 16 -7 4 3 16
-8 25 -23 l18 -27 -23 20 -23 20 17 -32 c11 -23 13 -34 4 -39 -6 -4 -8 -3 -4
4 3 6 1 14 -5 18 -7 4 -9 3 -5 -4 3 -6 -2 -16 -11 -22 -17 -10 -16 -10 2 -8
11 2 19 -2 18 -9 -3 -15 1440 -14 1471 1 13 6 17 6 13 -1 -3 -5 1 -10 9 -10
11 0 9 6 -8 22 -13 13 -27 20 -32 17 -4 -2 -3 -8 4 -12 8 -5 6 -9 -6 -14 -10
-4 -15 -4 -12 0 4 4 3 15 -3 25 -8 15 -6 17 7 12 13 -5 15 -3 9 8 -7 12 -6 12
7 1 8 -7 23 -10 32 -6 13 5 15 2 9 -12 -6 -16 -5 -17 9 -4 9 8 12 17 7 18 -5
2 -7 8 -4 12 3 5 -6 7 -19 4 -14 -2 -27 -1 -30 4 -7 12 46 8 71 -6 19 -11 22
-10 17 3 -3 8 -10 12 -15 9 -5 -3 -9 -1 -9 5 0 6 15 9 34 7 30 -2 33 0 25 15
-5 9 -12 19 -16 21 -5 3 -3 3 4 2 12 -3 28 13 28 28 0 3 4 10 9 15 5 5 6 3 2
-4 -4 -8 -1 -13 9 -13 9 0 13 4 10 10 -3 5 1 10 9 10 10 0 13 6 10 18 -5 13
-4 14 4 3 8 -11 11 -11 16 0 3 8 3 4 1 -7 -4 -14 0 -24 9 -27 13 -5 15 139 15
1149 0 806 -3 1154 -11 1154 -7 0 -6 5 1 14 9 11 9 16 0 22 -7 4 -9 3 -5 -4 3
-6 2 -14 -4 -17 -8 -5 -7 -12 2 -23 12 -15 11 -16 -4 -3 -18 13 -25 4 -10 -15
4 -5 0 -2 -9 8 -9 9 -20 14 -23 10 -4 -3 -4 2 0 12 5 12 9 14 14 6 5 -8 9 -7
14 5 3 9 1 24 -4 33 -9 14 -10 12 -4 -8 3 -14 3 -22 -1 -17 -5 4 -17 -1 -28
-10 -11 -10 -17 -12 -13 -5 10 17 -4 15 -28 -5 -21 -18 -21 -18 -3 3 15 18 15
23 4 32 -8 7 -17 9 -21 5 -4 -4 -4 0 0 10 4 12 13 16 25 12 12 -4 19 -2 19 6
0 7 -3 9 -6 6 -4 -3 -16 -1 -27 5 -20 10 -20 11 -2 24 10 8 14 14 9 14 -6 0
-16 -6 -23 -12 -11 -11 -13 -10 -9 3 4 11 -1 15 -21 15 -14 0 -29 -4 -33 -10
-5 -8 -8 -7 -8 1 0 14 -1326 17 -1335 3z m44 -26 c7 -17 7 -25 -1 -30 -7 -4
-8 -3 -4 4 4 7 1 12 -8 12 -10 0 -13 -7 -11 -21 4 -18 2 -19 -11 -8 -14 12
-14 15 4 29 18 15 18 18 4 27 -15 9 -15 10 0 10 9 0 21 -11 27 -23z m28 19
c-4 -3 -1 -13 6 -22 11 -14 10 -14 -5 -2 -21 15 -23 31 -6 31 6 0 8 -3 5 -7z
m1308 -1 c-2 -3 4 -13 15 -22 18 -15 18 -19 5 -30 -8 -7 -12 -17 -8 -23 4 -6
1 -7 -6 -2 -9 5 -10 10 -2 18 17 17 13 31 -4 17 -14 -12 -20 -7 -16 14 1 5 -5
6 -13 3 -9 -4 -18 -2 -21 4 -4 5 -3 9 2 8 19 -3 34 2 29 9 -3 5 1 9 9 9 8 0
13 -3 10 -5z m-65 -22 c0 -5 -5 -10 -11 -10 -5 0 -7 5 -4 10 3 6 8 10 11 10 2
0 4 -4 4 -10z m-1329 -47 c2 1 3 0 2 -2 -2 -2 -17 -6 -34 -8 -27 -3 -30 -1
-19 12 9 10 17 12 30 5 9 -5 19 -8 21 -7z m1503 -79 c3 -8 2 -12 -4 -9 -6 3
-10 10 -10 16 0 14 7 11 14 -7z m-2087 -246 c-3 -8 -6 -5 -6 6 -1 11 2 17 5
13 3 -3 4 -12 1 -19z m33 12 c0 -5 -4 -10 -10 -10 -5 0 -10 5 -10 10 0 6 5 10
10 10 6 0 10 -4 10 -10z m167 -7 c0 -8 -6 -9 -17 -3 -10 5 -20 6 -24 3 -3 -3
-6 -2 -6 4 0 6 10 10 23 9 13 0 24 -6 24 -13z m24 -6 c-10 -9 -11 -8 -5 6 3
10 9 15 12 12 3 -3 0 -11 -7 -18z m160 0 c-10 -9 -11 -8 -5 6 3 10 9 15 12 12
3 -3 0 -11 -7 -18z m-591 -4 c0 -7 -4 -13 -9 -13 -5 0 -11 6 -14 13 -3 8 1 14
9 14 8 0 14 -6 14 -14z m283 0 c-7 -2 -19 -2 -25 0 -7 3 -2 5 12 5 14 0 19 -2
13 -5z m-313 -23 c0 -5 -7 -7 -15 -4 -8 4 -15 8 -15 10 0 2 7 4 15 4 8 0 15
-4 15 -10z m-50 -25 c0 -12 -19 -12 -23 0 -4 9 -1 12 9 8 7 -3 14 -7 14 -8z
m-88 -67 c-7 -7 -12 -8 -12 -2 0 14 12 26 19 19 2 -3 -1 -11 -7 -17z m-57 -47
c3 -5 2 -12 -3 -15 -5 -3 -9 1 -9 9 0 17 3 19 12 6z m756 -1604 c-6 -8 -7 -18
-3 -22 4 -5 1 -5 -6 -1 -10 6 -10 11 -1 22 6 8 14 14 16 14 3 0 0 -6 -6 -13z
m-668 -10 c5 -14 -36 -18 -49 -4 -4 3 3 5 15 2 11 -2 21 0 21 6 0 13 7 11 13
-4z m254 7 c-3 -3 -12 -4 -19 -1 -8 3 -5 6 6 6 11 1 17 -2 13 -5z m56 -9 c-3
-9 -8 -14 -10 -11 -3 3 -2 9 2 15 9 16 15 13 8 -4z m184 9 c-3 -3 -12 -4 -19
-1 -8 3 -5 6 6 6 11 1 17 -2 13 -5z m56 -9 c-3 -9 -8 -14 -10 -11 -3 3 -2 9 2
15 9 16 15 13 8 -4z m187 0 c0 -2 -6 -5 -13 -8 -8 -3 -14 1 -14 8 0 7 6 11 14
8 7 -3 13 -6 13 -8z m-579 -18 c-10 -9 -11 -8 -5 6 3 10 9 15 12 12 3 -3 0
-11 -7 -18z m279 19 c0 -3 -4 -8 -10 -11 -5 -3 -10 -1 -10 4 0 6 5 11 10 11 6
0 10 -2 10 -4z m1938 -251 c-3 -3 -9 2 -12 12 -6 14 -5 15 5 6 7 -7 10 -15 7
-18z m-185 -130 c-3 -9 -8 -14 -10 -11 -3 3 -2 9 2 15 9 16 15 13 8 -4z
m-1373 -5 c0 -5 -2 -10 -4 -10 -3 0 -8 5 -11 10 -3 6 -1 10 4 10 6 0 11 -4 11
-10z"/>
<path d="M2423 2555 c0 -8 4 -12 9 -9 5 3 6 10 3 15 -9 13 -12 11 -12 -6z"/>
<path d="M2480 2526 c0 -2 11 -11 25 -20 14 -9 25 -13 25 -8 0 5 -11 14 -25
20 -14 6 -25 10 -25 8z"/>
<path d="M877 2413 c3 -7 6 -13 8 -13 2 0 5 6 8 13 3 8 -1 14 -8 14 -7 0 -11
-6 -8 -14z"/>
<path d="M873 2325 c0 -8 4 -12 9 -9 12 8 10 -10 -3 -23 -8 -8 -7 -13 2 -18 7
-5 10 -4 5 3 -3 6 3 16 14 22 11 6 20 16 19 23 0 8 -2 8 -6 -1 -4 -10 -9 -10
-22 2 -15 14 -18 14 -18 1z"/>
<path d="M900 2281 c0 -6 4 -13 10 -16 6 -3 7 1 4 9 -7 18 -14 21 -14 7z"/>
<path d="M66 2124 c1 -6 -3 -18 -9 -25 -7 -7 -3 -6 8 2 11 9 25 14 32 12 6 -2
14 1 18 7 4 7 -2 9 -19 6 -13 -2 -27 -1 -29 2 -2 4 -3 2 -1 -4z"/>
<path d="M715 401 c-3 -6 -10 -9 -14 -7 -4 3 -8 -1 -8 -9 0 -8 4 -15 9 -15 4
0 8 5 8 11 0 8 4 8 14 0 11 -10 14 -9 12 3 -3 22 -13 29 -21 17z"/>
<path d="M453 383 c0 -7 4 -13 8 -13 4 0 9 6 12 13 3 8 0 14 -7 14 -7 0 -13
-6 -13 -14z"/>
<path d="M875 390 c-8 -13 -1 -24 14 -19 6 3 7 10 2 18 -6 10 -10 10 -16 1z"/>
<path d="M887 327 c-3 -8 0 -14 7 -14 7 0 13 6 13 14 0 17 -13 17 -20 0z"/>
<path d="M890 293 c1 -18 18 -35 24 -24 4 6 4 16 1 21 -7 12 -25 13 -25 3z"/>
<path d="M870 260 c0 -5 5 -10 10 -10 6 0 10 5 10 10 0 6 -4 10 -10 10 -5 0
-10 -4 -10 -10z"/>
<path d="M896 241 c-3 -5 1 -11 9 -14 9 -4 12 -1 8 9 -6 16 -10 17 -17 5z"/>
<path d="M2550 160 c0 -6 4 -9 9 -6 5 4 12 1 14 -4 3 -6 4 -5 3 2 -3 15 -26
23 -26 8z"/>
<path d="M2499 133 c-8 -9 -9 -14 -2 -10 7 4 13 0 16 -10 3 -10 4 -6 4 10 -2
32 -1 32 -18 10z"/>
</g>
</svg>
